<?xml version="1.0" encoding="UTF-8" standalone="no"?>
<!-- Created with Inkscape (http://www.inkscape.org/) -->

<svg
   version="1.1"
   id="svg1"
   width="170.66667"
   height="172"
   viewBox="0 0 170.66667 172"
   xmlns="http://www.w3.org/2000/svg"
   xmlns:svg="http://www.w3.org/2000/svg">
  <defs
     id="defs1" />
  <g
     id="g1">
    <path
       style="fill:#000000"
       d="m 63.333335,162.8405 c -4.4,-1.26656 -11.9,-4.37382 -16.666667,-6.90501 -4.839938,-2.57009 -12.549451,-8.46464 -17.460285,-13.3498 -4.83649,-4.8112 -10.918598,-12.6112 -13.515796,-17.33333 C 13.093389,120.53023 9.8615973,113.36667 8.5088275,109.33333 6.7207419,104.00209 6.0425237,97.995821 6.0246231,87.333333 6.0034869,74.743552 6.4455108,71.681371 9.1461329,65.708647 c 1.7303731,-3.826911 3.9848221,-7.65407 5.0098861,-8.504797 1.509042,-1.252394 1.4869,-0.820394 -0.116339,2.269852 -1.08905,2.099147 -2.667568,7.126306 -3.507818,11.171464 C 9.6916129,74.690325 9.3476773,81.9 9.7675609,86.666667 10.187445,91.433333 11.566372,98.633333 12.831844,102.66667 L 15.132702,110 l 0.932197,-5.25699 c 0.611562,-3.44881 2.373089,-6.544429 5.121352,-9.000002 C 23.490286,93.684354 26.451261,92 27.766197,92 c 1.314935,0 3.555469,0.880918 4.978964,1.957596 2.499557,1.890569 2.474043,1.959746 -0.74516,2.020417 -1.833333,0.03455 -3.993511,0.503633 -4.800395,1.042404 -0.806884,0.538771 -2.156884,2.290138 -3,3.891923 -0.843116,1.60179 -1.532939,5.83399 -1.532939,9.40488 0,4.30534 1.158134,8.8166 3.437854,13.3914 1.890819,3.79438 6.455711,9.61219 10.144205,12.92846 3.688493,3.31627 7.256867,6.02959 7.92972,6.02959 0.672853,0 0.222247,-1.93596 -1.001347,-4.30213 -1.228756,-2.37615 -2.224717,-7.36263 -2.224717,-11.13849 0,-4.30863 0.933177,-8.42146 2.52381,-11.1233 1.388095,-2.35782 4.589536,-5.56595 7.114313,-7.1292 3.142425,-1.94566 6.856426,-2.86296 11.773624,-2.9079 6.466369,-0.0591 7.571579,0.36884 11.076163,4.28872 2.878068,3.21912 3.893044,5.6968 3.893044,9.50341 0,2.95032 -0.85403,5.85782 -2,6.80889 -1.702483,1.41293 -2,1.0625 -2,-2.3557 0,-2.20855 -1.122696,-5.40202 -2.49488,-7.09659 -1.805226,-2.22936 -3.87906,-3.08105 -7.502272,-3.08105 -3.955324,0 -5.812311,0.90086 -8.838454,4.28771 -2.107084,2.35823 -3.817885,5.62823 -3.801779,7.26666 0.0161,1.63843 1.136954,5.37897 2.490775,8.3123 1.353821,2.93333 3.898118,6.65403 5.653993,8.26821 1.755876,1.61417 5.885027,4.10503 9.175892,5.53522 3.290865,1.4302 8.983391,2.98675 12.650058,3.459 3.666667,0.47226 10.659557,0.28474 15.539757,-0.41669 4.880194,-0.70144 11.780204,-2.61546 15.333334,-4.25338 L 118,143.61433 l -5.33333,-1.02955 c -2.93333,-0.56625 -6.86716,-1.62045 -8.74183,-2.34267 -1.87467,-0.72222 -5.410047,-2.99733 -7.856395,-5.05579 -2.446347,-2.05847 -5.549348,-6.16749 -6.895557,-9.13116 -1.34621,-2.96367 -2.460831,-8.26829 -2.476936,-11.78804 -0.01611,-3.51975 0.940901,-8.31975 2.126682,-10.66667 1.18578,-2.34691 3.43578,-5.674125 5,-7.393802 1.564219,-1.719677 4.644036,-4.064862 6.844036,-5.211523 2.2,-1.146661 6.1,-2.56628 8.66667,-3.15471 2.64338,-0.606019 6.8041,-0.500205 9.59663,0.244058 2.71149,0.722662 6.68995,3.073908 8.84104,5.22499 2.15108,2.151083 4.30664,6.019726 4.79014,8.596987 0.58069,3.09534 0.1988,6.00144 -1.12505,8.5615 -1.10227,2.13156 -2.9754,4.24828 -4.1625,4.70381 -1.1871,0.45553 -4.1163,0.82824 -6.50933,0.82824 -2.62486,0 -5.2872,-1.03453 -6.71092,-2.60772 -2.30578,-2.54786 -2.25465,-2.59062 2.22798,-1.86319 3.27077,0.53077 5.22873,0.10371 6.81997,-1.48753 1.22762,-1.22762 2.23204,-3.28459 2.23204,-4.57105 0,-1.28645 -1.38867,-3.64359 -3.08594,-5.23809 -2.13468,-2.005429 -4.77461,-2.899087 -8.5641,-2.899087 -4.30776,0 -6.33184,0.853676 -9.47384,3.995677 -2.19762,2.19762 -4.39145,5.79762 -4.875173,8 -0.483724,2.20238 -0.487714,5.7881 -0.0089,7.96828 0.478847,2.18018 2.611283,5.42861 4.738733,7.21875 2.12746,1.79014 6.0449,3.9732 8.70542,4.85125 2.66052,0.87805 7.1452,1.22741 9.96596,0.77635 2.82075,-0.45105 7.23793,-2.06461 9.81595,-3.58568 3.10173,-1.83007 5.8849,-5.21338 8.22768,-10.00184 2.95538,-6.04059 3.44509,-8.55366 2.96368,-15.20906 -0.45788,-6.330157 -1.39952,-9.007147 -4.57039,-12.993255 -2.19653,-2.761259 -6.65891,-6.413827 -9.9164,-8.116817 -4.99619,-2.611966 -7.40212,-3.010413 -15.37972,-2.547037 -7.57938,0.440247 -11.02079,1.421754 -17.333333,4.943553 -4.331982,2.416834 -11.176331,6.254806 -15.209664,8.528826 -6.080932,3.428468 -8.69959,4.111104 -15.333334,3.997118 C 61.311685,95.07889 54.884358,93.826611 50.473572,92.13433 46.334036,90.54612 40.524153,87.491471 37.562722,85.346221 34.601291,83.200972 30.619818,78.786416 28.715005,75.536098 26.810192,72.28578 24.615866,66.016694 23.838725,61.604796 22.809738,55.763142 22.84567,51.560382 23.970943,46.139972 24.908979,41.621476 27.601875,35.573373 30.824221,30.747873 34.354534,25.461187 38.834164,20.994728 44.199572,17.411846 48.636573,14.448931 56.256806,10.74605 61.133424,9.1832229 67.915798,7.009651 73.447593,6.3320471 84.666669,6.300575 97.137878,6.26559 100.89567,6.792683 109.77045,9.8217954 c 5.74041,1.9593006 13.84041,5.7152666 18,8.3465926 4.15959,2.631325 9.27553,6.36989 11.36876,8.30792 2.09323,1.938031 6.52936,7.040052 9.85807,11.337825 3.32871,4.297773 7.72404,11.797773 9.76741,16.666666 2.04337,4.868894 4.43778,13.011337 5.32091,18.094318 0.92189,5.306062 1.26574,13.539387 0.80742,19.333333 -0.43905,5.550353 -2.12455,13.99155 -3.74555,18.75822 -1.621,4.76666 -4.7138,11.66666 -6.87288,15.33333 -2.15908,3.66667 -6.29851,9.50295 -9.19873,12.96952 -2.90023,3.46657 -9.75005,9.2972 -15.22182,12.95694 -6.03858,4.03885 -14.14943,7.9811 -20.63686,10.03048 -8.66973,2.73877 -13.256098,3.35845 -24.286007,3.2814 -8.63787,-0.0603 -16.515929,-0.93498 -21.597838,-2.39784 z M 137.3476,53.643765 c -1.55266,-2.762596 -4.8393,-6.404472 -7.30363,-8.093057 -2.99965,-2.055397 -5.93713,-2.929223 -8.88735,-2.643764 -3.21594,0.311168 -4.95845,1.439066 -6.44835,4.173902 -1.93147,3.545363 -1.8718,3.886998 1.10611,6.333333 2.34869,1.929432 5.22557,2.591004 11.33334,2.606238 4.50209,0.01123 9.08562,0.602042 10.18562,1.312916 1.1,0.710875 2.18839,1.301687 2.41864,1.312917 0.23026,0.01123 -0.85171,-2.239889 -2.40438,-5.002485 z"
       id="path1" />
  </g>
</svg>
