<?xml version="1.0" encoding="UTF-8" standalone="no"?>
<svg width="500" height="500" viewBox="0 0 500 500" xmlns="http://www.w3.org/2000/svg">
  <g stroke="#ffffff" stroke-width="1" fill="none" opacity="0.8">
    <!-- Circuit Traces -->
    <path d="M50,50 L200,50 L200,150 L300,150 L300,250" />
    <path d="M380,50 L300,50 L300,100" />
    <path d="M450,150 L350,150 L350,250 L250,250 L250,350" />
    <path d="M50,250 L150,250 L150,350 L250,350" />
    <path d="M450,350 L350,350" />
    <path d="M50,450 L150,450 L150,350" />
    <path d="M350,450 L350,350" />
    
    <!-- Connection Points -->
    <circle cx="50" cy="50" r="5" fill="#ffffff" />
    <circle cx="200" cy="50" r="5" fill="#ffffff" />
    <circle cx="380" cy="50" r="5" fill="#ffffff" />
    <circle cx="200" cy="150" r="5" fill="#ffffff" />
    <circle cx="300" cy="150" r="5" fill="#ffffff" />
    <circle cx="450" cy="150" r="5" fill="#ffffff" />
    <circle cx="50" cy="250" r="5" fill="#ffffff" />
    <circle cx="350" cy="250" r="5" fill="#ffffff" />
    <circle cx="150" cy="350" r="5" fill="#ffffff" />
    <circle cx="250" cy="350" r="5" fill="#ffffff" />
    <circle cx="350" cy="350" r="5" fill="#ffffff" />
    <circle cx="450" cy="350" r="5" fill="#ffffff" />
    <circle cx="50" cy="450" r="5" fill="#ffffff" />
    <circle cx="150" cy="450" r="5" fill="#ffffff" />
    <circle cx="350" cy="450" r="5" fill="#ffffff" />
    
    <!-- Components -->
    <rect x="270" y="120" width="60" height="30" rx="2" />
    <rect x="320" y="220" width="60" height="30" rx="2" />
    <rect x="170" y="320" width="60" height="30" rx="2" />
    
    <!-- Integrated Circuit -->
    <rect x="80" y="200" width="50" height="30" rx="2" />
    <line x1="80" y1="210" x2="70" y2="210" />
    <line x1="80" y1="220" x2="70" y2="220" />
    <line x1="130" y1="210" x2="140" y2="210" />
    <line x1="130" y1="220" x2="140" y2="220" />
    
    <!-- Hexagons -->
    <polygon points="400,100 415,110 415,130 400,140 385,130 385,110" />
    <polygon points="100,400 115,410 115,430 100,440 85,430 85,410" />
    <polygon points="400,400 415,410 415,430 400,440 385,430 385,410" />
    
    <!-- Additional Circuit Elements -->
    <circle cx="200" cy="200" r="15" />
    <circle cx="300" cy="300" r="15" />
    <path d="M350,100 C370,120 370,140 350,160" />
    <path d="M150,100 C130,120 130,140 150,160" />
  </g>
</svg>