<svg xmlns="http://www.w3.org/2000/svg" viewBox="0 0 64 64" width="64" height="64">
  <defs>
    <linearGradient id="dlBg" x1="0%" y1="0%" x2="100%" y2="100%">
      <stop offset="0%" style="stop-color:#e84430;stop-opacity:1"/>
      <stop offset="100%" style="stop-color:#f06030;stop-opacity:1"/>
    </linearGradient>
  </defs>
  <rect width="64" height="64" rx="12" fill="url(#dlBg)"/>
  <!-- Brain/neural network icon -->
  <!-- Nodes -->
  <circle cx="16" cy="22" r="3" fill="rgba(255,255,255,0.9)"/>
  <circle cx="16" cy="42" r="3" fill="rgba(255,255,255,0.9)"/>
  <circle cx="32" cy="16" r="3" fill="#fff"/>
  <circle cx="32" cy="32" r="3" fill="#fff"/>
  <circle cx="32" cy="48" r="3" fill="#fff"/>
  <circle cx="48" cy="22" r="3" fill="rgba(255,255,255,0.9)"/>
  <circle cx="48" cy="42" r="3" fill="rgba(255,255,255,0.9)"/>
  <!-- Connections -->
  <line x1="16" y1="22" x2="32" y2="16" stroke="rgba(255,255,255,0.5)" stroke-width="1.2"/>
  <line x1="16" y1="22" x2="32" y2="32" stroke="rgba(255,255,255,0.5)" stroke-width="1.2"/>
  <line x1="16" y1="22" x2="32" y2="48" stroke="rgba(255,255,255,0.3)" stroke-width="0.8"/>
  <line x1="16" y1="42" x2="32" y2="16" stroke="rgba(255,255,255,0.3)" stroke-width="0.8"/>
  <line x1="16" y1="42" x2="32" y2="32" stroke="rgba(255,255,255,0.5)" stroke-width="1.2"/>
  <line x1="16" y1="42" x2="32" y2="48" stroke="rgba(255,255,255,0.5)" stroke-width="1.2"/>
  <line x1="32" y1="16" x2="48" y2="22" stroke="rgba(255,255,255,0.5)" stroke-width="1.2"/>
  <line x1="32" y1="16" x2="48" y2="42" stroke="rgba(255,255,255,0.3)" stroke-width="0.8"/>
  <line x1="32" y1="32" x2="48" y2="22" stroke="rgba(255,255,255,0.5)" stroke-width="1.2"/>
  <line x1="32" y1="32" x2="48" y2="42" stroke="rgba(255,255,255,0.5)" stroke-width="1.2"/>
  <line x1="32" y1="48" x2="48" y2="22" stroke="rgba(255,255,255,0.3)" stroke-width="0.8"/>
  <line x1="32" y1="48" x2="48" y2="42" stroke="rgba(255,255,255,0.5)" stroke-width="1.2"/>
</svg>