<svg xmlns="http://www.w3.org/2000/svg" viewBox="0 0 800 400" width="800" height="400">
  <defs>
    <linearGradient id="hrBg" x1="0%" y1="0%" x2="100%" y2="100%">
      <stop offset="0%" style="stop-color:#0a1628;stop-opacity:1"/>
      <stop offset="100%" style="stop-color:#0d2035;stop-opacity:1"/>
    </linearGradient>
    <linearGradient id="hrAccent" x1="0%" y1="0%" x2="100%" y2="100%">
      <stop offset="0%" style="stop-color:#0ea5e9;stop-opacity:1"/>
      <stop offset="100%" style="stop-color:#14b8a6;stop-opacity:1"/>
    </linearGradient>
  </defs>
  <!-- Background -->
  <rect width="800" height="400" rx="16" fill="url(#hrBg)"/>
  <!-- Decorative -->
  <circle cx="650" cy="80" r="180" fill="rgba(14,165,233,0.05)"/>
  <circle cx="150" cy="380" r="120" fill="rgba(20,184,166,0.04)"/>
  <!-- Dashboard mockup -->
  <g transform="translate(380, 40)">
    <!-- Dashboard frame -->
    <rect x="0" y="0" width="370" height="320" rx="12" fill="#111827" stroke="rgba(14,165,233,0.2)" stroke-width="1.5"/>
    <!-- Top bar -->
    <rect x="0" y="0" width="370" height="32" rx="12" fill="#1f2937"/>
    <rect x="280" y="0" width="90" height="32" rx="0" fill="#1f2937"/>
    <circle cx="16" cy="16" r="4" fill="#ef4444"/>
    <circle cx="30" cy="16" r="4" fill="#eab308"/>
    <circle cx="44" cy="16" r="4" fill="#22c55e"/>
    <!-- Sidebar -->
    <rect x="0" y="32" width="60" height="288" fill="#1a2332"/>
    <rect x="14" y="48" width="32" height="4" rx="2" fill="rgba(14,165,233,0.4)"/>
    <rect x="14" y="64" width="32" height="3" rx="1.5" fill="rgba(255,255,255,0.15)"/>
    <rect x="14" y="78" width="32" height="3" rx="1.5" fill="rgba(255,255,255,0.15)"/>
    <rect x="14" y="92" width="32" height="3" rx="1.5" fill="rgba(255,255,255,0.15)"/>
    <rect x="10" y="106" width="40" height="20" rx="4" fill="rgba(14,165,233,0.1)"/>
    <rect x="14" y="114" width="32" height="3" rx="1.5" fill="rgba(14,165,233,0.5)"/>
    <!-- KPI Cards -->
    <rect x="72" y="44" width="86" height="50" rx="8" fill="#1f2937" stroke="rgba(14,165,233,0.15)" stroke-width="1"/>
    <text x="82" y="62" font-family="Arial, sans-serif" font-size="7" fill="rgba(255,255,255,0.5)">Total Employees</text>
    <text x="82" y="80" font-family="Arial, sans-serif" font-size="16" font-weight="700" fill="#0ea5e9">1,247</text>
    <rect x="166" y="44" width="86" height="50" rx="8" fill="#1f2937" stroke="rgba(20,184,166,0.15)" stroke-width="1"/>
    <text x="176" y="62" font-family="Arial, sans-serif" font-size="7" fill="rgba(255,255,255,0.5)">Retention Rate</text>
    <text x="176" y="80" font-family="Arial, sans-serif" font-size="16" font-weight="700" fill="#14b8a6">94.2%</text>
    <rect x="260" y="44" width="86" height="50" rx="8" fill="#1f2937" stroke="rgba(124,58,237,0.15)" stroke-width="1"/>
    <text x="270" y="62" font-family="Arial, sans-serif" font-size="7" fill="rgba(255,255,255,0.5)">New Hires</text>
    <text x="270" y="80" font-family="Arial, sans-serif" font-size="16" font-weight="700" fill="#a78bfa">38</text>
    <!-- Bar chart -->
    <rect x="72" y="106" width="140" height="95" rx="8" fill="#1f2937"/>
    <text x="82" y="122" font-family="Arial, sans-serif" font-size="7" fill="rgba(255,255,255,0.5)">Monthly Headcount</text>
    <rect x="84" y="168" width="10" height="24" rx="2" fill="rgba(14,165,233,0.4)"/>
    <rect x="98" y="158" width="10" height="34" rx="2" fill="rgba(14,165,233,0.5)"/>
    <rect x="112" y="148" width="10" height="44" rx="2" fill="rgba(14,165,233,0.6)"/>
    <rect x="126" y="155" width="10" height="37" rx="2" fill="rgba(14,165,233,0.55)"/>
    <rect x="140" y="142" width="10" height="50" rx="2" fill="rgba(14,165,233,0.7)"/>
    <rect x="154" y="135" width="10" height="57" rx="2" fill="#0ea5e9"/>
    <rect x="168" y="140" width="10" height="52" rx="2" fill="rgba(14,165,233,0.65)"/>
    <rect x="182" y="150" width="10" height="42" rx="2" fill="rgba(14,165,233,0.5)"/>
    <!-- Donut chart area -->
    <rect x="222" y="106" width="124" height="95" rx="8" fill="#1f2937"/>
    <text x="232" y="122" font-family="Arial, sans-serif" font-size="7" fill="rgba(255,255,255,0.5)">Dept. Distribution</text>
    <circle cx="284" cy="165" r="26" fill="none" stroke="#0ea5e9" stroke-width="8" stroke-dasharray="40 120"/>
    <circle cx="284" cy="165" r="26" fill="none" stroke="#14b8a6" stroke-width="8" stroke-dasharray="30 120" stroke-dashoffset="-40"/>
    <circle cx="284" cy="165" r="26" fill="none" stroke="#a78bfa" stroke-width="8" stroke-dasharray="25 120" stroke-dashoffset="-70"/>
    <circle cx="284" cy="165" r="26" fill="none" stroke="#f59e0b" stroke-width="8" stroke-dasharray="20 120" stroke-dashoffset="-95"/>
    <!-- Table area -->
    <rect x="72" y="212" width="274" height="96" rx="8" fill="#1f2937"/>
    <text x="82" y="228" font-family="Arial, sans-serif" font-size="7" fill="rgba(255,255,255,0.5)">Recent Activity</text>
    <rect x="82" y="238" width="252" height="1" fill="rgba(255,255,255,0.06)"/>
    <rect x="82" y="244" width="50" height="3" rx="1.5" fill="rgba(255,255,255,0.2)"/>
    <rect x="150" y="244" width="70" height="3" rx="1.5" fill="rgba(255,255,255,0.15)"/>
    <rect x="270" y="244" width="40" height="3" rx="1.5" fill="rgba(14,165,233,0.4)"/>
    <rect x="82" y="256" width="252" height="1" fill="rgba(255,255,255,0.04)"/>
    <rect x="82" y="262" width="45" height="3" rx="1.5" fill="rgba(255,255,255,0.2)"/>
    <rect x="150" y="262" width="60" height="3" rx="1.5" fill="rgba(255,255,255,0.15)"/>
    <rect x="270" y="262" width="35" height="3" rx="1.5" fill="rgba(20,184,166,0.4)"/>
    <rect x="82" y="274" width="252" height="1" fill="rgba(255,255,255,0.04)"/>
    <rect x="82" y="280" width="55" height="3" rx="1.5" fill="rgba(255,255,255,0.2)"/>
    <rect x="150" y="280" width="65" height="3" rx="1.5" fill="rgba(255,255,255,0.15)"/>
    <rect x="270" y="280" width="45" height="3" rx="1.5" fill="rgba(124,58,237,0.4)"/>
    <rect x="82" y="292" width="252" height="1" fill="rgba(255,255,255,0.04)"/>
  </g>
  <!-- Text content -->
  <text x="60" y="120" font-family="Arial, Helvetica, sans-serif" font-size="14" font-weight="400" fill="#0ea5e9" letter-spacing="3">ANALYTICS PROJECT</text>
  <text x="60" y="175" font-family="Arial, Helvetica, sans-serif" font-size="42" font-weight="800" fill="#ffffff">HR</text>
  <text x="60" y="220" font-family="Arial, Helvetica, sans-serif" font-size="42" font-weight="800" fill="#ffffff">Dashboard</text>
  <!-- Divider -->
  <rect x="60" y="240" width="60" height="3" rx="1.5" fill="url(#hrAccent)"/>
  <!-- Tech tags -->
  <rect x="60" y="265" width="80" height="26" rx="13" fill="rgba(14,165,233,0.12)" stroke="rgba(14,165,233,0.3)" stroke-width="1"/>
  <text x="100" y="283" font-family="Arial, sans-serif" font-size="11" fill="#38bdf8" text-anchor="middle">Power BI</text>
  <rect x="150" y="265" width="60" height="26" rx="13" fill="rgba(20,184,166,0.12)" stroke="rgba(20,184,166,0.3)" stroke-width="1"/>
  <text x="180" y="283" font-family="Arial, sans-serif" font-size="11" fill="#5eead4" text-anchor="middle">SQL</text>
  <rect x="220" y="265" width="90" height="26" rx="13" fill="rgba(14,165,233,0.12)" stroke="rgba(14,165,233,0.3)" stroke-width="1"/>
  <text x="265" y="283" font-family="Arial, sans-serif" font-size="11" fill="#38bdf8" text-anchor="middle">Analytics</text>
</svg>