<?xml version="1.0" encoding="UTF-8" standalone="no"?>
<!-- Created with Inkscape (http://www.inkscape.org/) -->

<svg
   version="1.1"
   id="svg1"
   width="64"
   height="64"
   viewBox="0 0 64 64"
   xmlns="http://www.w3.org/2000/svg"
   xmlns:svg="http://www.w3.org/2000/svg">
  <defs
     id="defs1" />
  <g
     id="g1">
    <path
       style="fill:#fb68c2;stroke:none"
       d="m 31.04,13.38781 c -3.382681,3.534839 -6.248171,7.694023 -7.478518,12.48 -0.369683,1.438047 -0.97241,3.572129 -0.328396,5.014814 1.015068,2.273899 5.199102,4.022715 6.846914,6.185186 2.267549,-1.057437 3.883167,-3.247227 6.08,-4.519753 0.932603,-0.540215 2.515366,-0.96001 3.006914,-2.005186 0.64866,-1.379238 0.01658,-3.616623 -0.365432,-4.995061 C 37.556077,21.053933 34.67928,16.338713 31.04,13.38781 m -14.08,10.24 -0.64,5.44 4.48,0.96 0.64,-4.48 -4.48,-1.92 m 24,1.92 0.64,4.48 c 4.634238,-0.681326 4.013506,-2.358955 3.84,-6.4 l -4.48,1.92 m -29.12,6.08 c 2.217423,7.814026 5.97386,14.536797 14.08,17.28 0.662278,-2.55873 3.107312,-7.131143 2.866172,-9.6 C 28.6303,37.71196 26.77416,36.222246 25.6,35.317192 21.717395,32.324443 16.577494,31.62781 11.84,31.62781 m 16,18.56 c 11.342158,2.700337 20.569219,-7.971846 22.08,-18.24 -6.776646,0 -13.68877,0.844082 -17.745679,7.04 -2.242185,3.42438 -3.086784,7.364688 -4.334321,11.2 m 12.48,0.32 c 7.102437,0 14.274663,-1.557764 20.16,-5.76 -1.543232,-1.862666 -7.835591,-5.851567 -10.435063,-4.897039 -1.148604,0.421768 -1.925357,2.659314 -2.595801,3.617039 -1.936216,2.765869 -5.41709,4.370415 -7.129136,7.04 m -36.8,-6.4 c 0.909811,1.751357 3.064725,2.527422 4.8,3.318516 4.807816,2.191836 9.78541,3.081484 15.04,3.081484 v -0.32 c -4.535188,-1.898174 -8.460927,-5.802861 -10.56,-10.24 z"
       id="path2" />
  </g>
</svg>
